<svg width="25" height="25" viewBox="0 0 25 25" fill="none" xmlns="http://www.w3.org/2000/svg">
<g clip-path="url(#clip0_232_85)">
<path d="M8.59375 10.5464H16.4062C16.8379 10.5464 17.1875 10.1968 17.1875 9.76517V8.98392C17.1875 8.55227 16.8379 8.20267 16.4062 8.20267H8.59375C8.16211 8.20267 7.8125 8.55227 7.8125 8.98392V9.76517C7.8125 10.1968 8.16211 10.5464 8.59375 10.5464ZM7.8125 14.4527C7.8125 14.8843 8.16211 15.2339 8.59375 15.2339H16.4062C16.8379 15.2339 17.1875 14.8843 17.1875 14.4527V13.6714C17.1875 13.2398 16.8379 12.8902 16.4062 12.8902H8.59375C8.16211 12.8902 7.8125 13.2398 7.8125 13.6714V14.4527ZM12.5 20.3672C11.6982 20.3672 10.8965 20.1201 10.2119 19.6255L0 12.2486V22.6558C0 23.9502 1.04932 24.9995 2.34375 24.9995H22.6562C23.9507 24.9995 25 23.9502 25 22.6558V12.2486L14.7881 19.6255C14.1035 20.1197 13.3018 20.3672 12.5 20.3672ZM24.1021 7.95608C23.6699 7.61722 23.2603 7.29837 22.6562 6.84231V4.68704C22.6562 3.39261 21.6069 2.34329 20.3125 2.34329H16.5259C16.3774 2.23587 16.2393 2.13528 16.0845 2.02298C15.2637 1.42386 13.6328 -0.0175495 12.5 -0.000459699C11.3672 -0.0175495 9.73682 1.42386 8.91553 2.02298C8.76074 2.13528 8.62256 2.23587 8.47412 2.34329H4.6875C3.39307 2.34329 2.34375 3.39261 2.34375 4.68704V6.84231C1.73975 7.29788 1.33008 7.61722 0.897949 7.95608C0.618241 8.17529 0.392048 8.45523 0.236481 8.77474C0.0809144 9.09425 4.81351e-05 9.44495 0 9.80032L0 10.3203L4.6875 13.7066V4.68704H20.3125V13.7066L25 10.3203V9.80032C25 9.0806 24.6689 8.40042 24.1021 7.95608Z" fill="#DCDCDC"/>
</g>
<defs>
<clipPath id="clip0_232_85">
<rect width="25" height="25" fill="white" transform="translate(0 -0.000488281)"/>
</clipPath>
</defs>
</svg>
