<svg width="25" height="26" viewBox="0 0 25 26" fill="none" xmlns="http://www.w3.org/2000/svg">
<g clip-path="url(#clip0_232_92)">
<path d="M10.9375 15.9751V23.626L12.0127 25.2383C12.2446 25.5859 12.7559 25.5859 12.9878 25.2383L14.0625 23.626V15.9751C13.5552 16.0688 13.0342 16.1245 12.5 16.1245C11.9658 16.1245 11.4448 16.0688 10.9375 15.9751ZM12.5 0.499512C8.6167 0.499512 5.46875 3.64746 5.46875 7.53076C5.46875 11.4141 8.6167 14.562 12.5 14.562C16.3833 14.562 19.5312 11.4141 19.5312 7.53076C19.5312 3.64746 16.3833 0.499512 12.5 0.499512ZM12.5 4.21045C10.6689 4.21045 9.17969 5.69971 9.17969 7.53076C9.17969 7.854 8.91699 8.1167 8.59375 8.1167C8.27051 8.1167 8.00781 7.854 8.00781 7.53076C8.00781 5.05371 10.0234 3.03857 12.5 3.03857C12.8232 3.03857 13.0859 3.30127 13.0859 3.62451C13.0859 3.94775 12.8232 4.21045 12.5 4.21045Z" fill="#DCDCDC"/>
</g>
<defs>
<clipPath id="clip0_232_92">
<rect width="25" height="25" fill="white" transform="translate(0 0.499512)"/>
</clipPath>
</defs>
</svg>
